<?xml version="1.0" encoding="iso-8859-1"?>
<!-- Generator: Adobe Illustrator 18.0.0, SVG Export Plug-In . SVG Version: 6.00 Build 0)  -->
<!DOCTYPE svg PUBLIC "-//W3C//DTD SVG 1.1//EN" "http://www.w3.org/Graphics/SVG/1.1/DTD/svg11.dtd">
<svg version="1.1" id="Capa_1" xmlns="http://www.w3.org/2000/svg" xmlns:xlink="http://www.w3.org/1999/xlink" x="0px" y="0px"
	 viewBox="0 0 297.5 297.5" style="enable-background:new 0 0 297.5 297.5;" xml:space="preserve">
<path style="fill:#E2B68F;" d="M225.337,99.25H88.67c-12.38,0-22.417,10.036-22.417,22.417v54.167
	c0,12.38,10.036,22.417,22.417,22.417h22.333v97.9h92v-97.9h22.333c12.38,0,22.417-10.036,22.417-22.417v-54.167
	C247.753,109.286,237.717,99.25,225.337,99.25z"/>
<g id="XMLID_10_">
	<g>
		<path style="fill:#E2B68F;" d="M115.45,99.87c7.66,0,13.9,6.23,13.9,13.89s-6.24,13.89-13.9,13.89H60.12
			c-3.49,0-6.33-2.84-6.33-6.33V106.2c0-3.49,2.84-6.33,6.33-6.33H115.45z"/>
		<path style="fill:#E2B68F;" d="M100.39,26.57v53.31H72.61V26.57c0-3.49,2.84-6.33,6.33-6.33h15.12
			C97.55,20.24,100.39,23.08,100.39,26.57z"/>
		<path style="fill:#E2B68F;" d="M148.17,26.57v55.34c0,4.65-2.3,8.76-5.82,11.28c-5.25-6.85-13.05-11.64-21.97-12.95V26.57
			c0-3.49,2.84-6.33,6.33-6.33h15.13C145.33,20.24,148.17,23.08,148.17,26.57z"/>
		<path style="fill:#E2B68F;" d="M195.94,26.57v55.34c0,7.66-6.23,13.89-13.89,13.89s-13.89-6.23-13.89-13.89V26.57
			c0-3.49,2.84-6.33,6.33-6.33h15.12C193.1,20.24,195.94,23.08,195.94,26.57z"/>
		<path style="fill:#E2B68F;" d="M243.72,42.5v55.34c0,7.66-6.23,13.89-13.89,13.89s-13.89-6.23-13.89-13.89V42.5
			c0-3.49,2.84-6.33,6.33-6.33h15.12C240.88,36.17,243.72,39.01,243.72,42.5z"/>
		<path d="M263.71,42.5v122.74c0,25.42-20.68,46.11-46.11,46.11h-1.66v75.9c0,5.52-4.48,10-10,10s-10-4.48-10-10v-85.9
			c0-5.52,4.48-9.99,10-9.99h11.66c14.4,0,26.12-11.72,26.12-26.12v-36.51c-4.24,1.92-8.94,2.99-13.89,2.99
			c-13.88,0-25.83-8.39-31.06-20.35c-4.94,2.81-10.64,4.43-16.72,4.43c-9.31,0-17.76-3.78-23.89-9.89
			c-2.58,2.57-5.55,4.73-8.84,6.36c0,1.59-0.1,4.65-0.31,6.18c11.51,7.46,19.15,20.41,19.15,35.13v31.85c0,5.52-4.48,9.99-10,9.99
			c-5.52,0-9.99-4.47-9.99-9.99v-31.85c0-6.75-3.08-12.77-7.9-16.78c-6.19,6.66-15.02,10.85-24.82,10.85H68.94
			c0,0,1.98,8.94,2.64,11.92c4.01,18.06,19.36,31.13,37.33,31.76c0.49,0.02,0.99,0.03,1.48,0.03c5.52,0,9.99,4.47,9.99,9.99v85.9
			c0,5.52-4.47,10-9.99,10c-5.52,0-10-4.48-10-10v-76.74c-23.61-4.04-42.93-22.29-48.32-46.62c-1.08-4.83-4.29-19.32-4.29-19.32
			c-8.31-4.43-13.99-13.19-13.99-23.25V106.2c0-11.91,7.95-21.99,18.82-25.23v-54.4c0-14.51,11.81-26.32,26.33-26.32h15.12
			c6.16,0,11.84,2.14,16.33,5.7c4.49-3.56,10.16-5.7,16.32-5.7h15.13c6.16,0,11.83,2.14,16.32,5.7c4.49-3.56,10.17-5.7,16.33-5.7
			h15.12c11.3,0,20.95,7.15,24.68,17.16c2.52-0.8,5.2-1.23,7.98-1.23h15.12C251.9,16.18,263.71,27.98,263.71,42.5z M243.72,97.84
			V42.5c0-3.49-2.84-6.33-6.33-6.33h-15.12c-3.49,0-6.33,2.84-6.33,6.33v55.34c0,7.66,6.23,13.89,13.89,13.89
			S243.72,105.5,243.72,97.84z M195.94,81.91V26.57c0-3.49-2.84-6.33-6.33-6.33h-15.12c-3.49,0-6.33,2.84-6.33,6.33v55.34
			c0,7.66,6.23,13.89,13.89,13.89S195.94,89.57,195.94,81.91z M148.17,81.91V26.57c0-3.49-2.84-6.33-6.33-6.33h-15.13
			c-3.49,0-6.33,2.84-6.33,6.33v53.67c8.92,1.31,16.72,6.1,21.97,12.95C145.87,90.67,148.17,86.56,148.17,81.91z M129.35,113.76
			c0-7.66-6.24-13.89-13.9-13.89H60.12c-3.49,0-6.33,2.84-6.33,6.33v15.12c0,3.49,2.84,6.33,6.33,6.33h55.33
			C123.11,127.65,129.35,121.42,129.35,113.76z M100.39,79.88V26.57c0-3.49-2.84-6.33-6.33-6.33H78.94c-3.49,0-6.33,2.84-6.33,6.33
			v53.31H100.39z"/>
	</g>
	<g>
	</g>
</g>
<g>
</g>
<g>
</g>
<g>
</g>
<g>
</g>
<g>
</g>
<g>
</g>
<g>
</g>
<g>
</g>
<g>
</g>
<g>
</g>
<g>
</g>
<g>
</g>
<g>
</g>
<g>
</g>
<g>
</g>
</svg>
